<svg width="20" height="20" viewBox="0 0 20 20" fill="none" xmlns="http://www.w3.org/2000/svg">
<path d="M10 4.16663C3.6392 4.16663 1.72754 9.68079 1.71004 9.73663L1.6217 9.99996L1.7092 10.2633C1.72754 10.3191 3.6392 15.8333 10 15.8333C16.3609 15.8333 18.2725 10.3191 18.29 10.2633L18.3784 9.99996L18.2909 9.73663C18.2725 9.68079 16.3609 4.16663 10 4.16663ZM10 13.3333C8.1617 13.3333 6.6667 11.8383 6.6667 9.99996C6.6667 8.16163 8.1617 6.66663 10 6.66663C11.8384 6.66663 13.3334 8.16163 13.3334 9.99996C13.3334 11.8383 11.8384 13.3333 10 13.3333Z" fill="#ADB3BC"/>
<path d="M10 8.33337C9.09671 8.33337 8.33337 9.09671 8.33337 10C8.33337 10.9034 9.09671 11.6667 10 11.6667C10.9034 11.6667 11.6667 10.9034 11.6667 10C11.6667 9.09671 10.9034 8.33337 10 8.33337Z" fill="#ADB3BC"/>
</svg>
