<svg width="175" height="40" viewBox="0 0 175 40" fill="none" xmlns="http://www.w3.org/2000/svg">
<rect x="0.5" y="0.5" width="174" height="39" rx="19.5" stroke="#3949AB"/>
<g clip-path="url(#clip0_1_1474)">
<path d="M66 20C66 13.3726 60.6274 8 54 8C47.3726 8 42 13.3726 42 20C42 25.9895 46.3882 30.954 52.125 31.8542V23.4688H49.0781V20H52.125V17.3563C52.125 14.3488 53.9166 12.6875 56.6576 12.6875C57.9701 12.6875 59.3438 12.9219 59.3438 12.9219V15.875H57.8306C56.34 15.875 55.875 16.8001 55.875 17.75V20H59.2031L58.6711 23.4688H55.875V31.8542C61.6118 30.954 66 25.9895 66 20Z" fill="#1877F2"/>
<path d="M58.6711 23.4688L59.2031 20H55.875V17.75C55.875 16.801 56.34 15.875 57.8306 15.875H59.3438V12.9219C59.3438 12.9219 57.9705 12.6875 56.6576 12.6875C53.9166 12.6875 52.125 14.3488 52.125 17.3563V20H49.0781V23.4688H52.125V31.8542C53.3674 32.0486 54.6326 32.0486 55.875 31.8542V23.4688H58.6711Z" fill="white"/>
</g>
<path d="M76.806 16.575V20.082H80.929V21.188H76.806V25.5H75.448V15.469H81.629V16.575H76.806ZM85.915 22.308C85.341 22.3267 84.851 22.3733 84.445 22.448C84.0436 22.518 83.7146 22.6113 83.458 22.728C83.206 22.8447 83.0216 22.9823 82.905 23.141C82.793 23.2997 82.737 23.477 82.737 23.673C82.737 23.8597 82.7673 24.0207 82.828 24.156C82.8886 24.2913 82.9703 24.4033 83.073 24.492C83.1803 24.576 83.304 24.639 83.444 24.681C83.5886 24.7183 83.7426 24.737 83.906 24.737C84.1253 24.737 84.326 24.716 84.508 24.674C84.69 24.6273 84.8603 24.562 85.019 24.478C85.1823 24.394 85.3363 24.2937 85.481 24.177C85.6303 24.0603 85.775 23.9273 85.915 23.778V22.308ZM81.89 19.41C82.282 19.032 82.7043 18.7497 83.157 18.563C83.6096 18.3763 84.1113 18.283 84.662 18.283C85.0586 18.283 85.411 18.3483 85.719 18.479C86.027 18.6097 86.286 18.7917 86.496 19.025C86.706 19.2583 86.8646 19.5407 86.972 19.872C87.0793 20.2033 87.133 20.5673 87.133 20.964V25.5H86.58C86.4586 25.5 86.3653 25.4813 86.3 25.444C86.2346 25.402 86.1833 25.3227 86.146 25.206L86.006 24.534C85.8193 24.7067 85.6373 24.8607 85.46 24.996C85.2826 25.1267 85.096 25.2387 84.9 25.332C84.704 25.4207 84.494 25.4883 84.27 25.535C84.0506 25.5863 83.8056 25.612 83.535 25.612C83.2596 25.612 83.0006 25.5747 82.758 25.5C82.5153 25.4207 82.303 25.304 82.121 25.15C81.9436 24.996 81.8013 24.8023 81.694 24.569C81.5913 24.331 81.54 24.051 81.54 23.729C81.54 23.449 81.617 23.1807 81.771 22.924C81.925 22.6627 82.1746 22.4317 82.52 22.231C82.8653 22.0303 83.3156 21.867 83.871 21.741C84.4263 21.6103 85.1076 21.5357 85.915 21.517V20.964C85.915 20.4133 85.796 19.998 85.558 19.718C85.32 19.4333 84.9723 19.291 84.515 19.291C84.207 19.291 83.948 19.3307 83.738 19.41C83.5326 19.4847 83.353 19.571 83.199 19.669C83.0496 19.7623 82.919 19.8487 82.807 19.928C82.6996 20.0027 82.5923 20.04 82.485 20.04C82.401 20.04 82.3286 20.019 82.268 19.977C82.2073 19.9303 82.156 19.8743 82.114 19.809L81.89 19.41ZM93.9659 19.669C93.9286 19.7203 93.8913 19.76 93.8539 19.788C93.8166 19.816 93.7653 19.83 93.6999 19.83C93.6299 19.83 93.5529 19.802 93.4689 19.746C93.3849 19.6853 93.2799 19.62 93.1539 19.55C93.0326 19.48 92.8809 19.417 92.6989 19.361C92.5216 19.3003 92.3023 19.27 92.0409 19.27C91.6909 19.27 91.3829 19.333 91.1169 19.459C90.8509 19.5803 90.6269 19.7577 90.4449 19.991C90.2676 20.2243 90.1323 20.5067 90.0389 20.838C89.9503 21.1693 89.9059 21.5403 89.9059 21.951C89.9059 22.3803 89.9549 22.763 90.0529 23.099C90.1509 23.4303 90.2886 23.7103 90.4659 23.939C90.6479 24.163 90.8649 24.3357 91.1169 24.457C91.3736 24.5737 91.6606 24.632 91.9779 24.632C92.2813 24.632 92.5309 24.597 92.7269 24.527C92.9229 24.4523 93.0839 24.3707 93.2099 24.282C93.3406 24.1933 93.4479 24.114 93.5319 24.044C93.6206 23.9693 93.7069 23.932 93.7909 23.932C93.8936 23.932 93.9729 23.9717 94.0289 24.051L94.3789 24.506C94.2249 24.6973 94.0499 24.8607 93.8539 24.996C93.6579 25.1313 93.4456 25.2457 93.2169 25.339C92.9929 25.4277 92.7573 25.493 92.5099 25.535C92.2626 25.577 92.0106 25.598 91.7539 25.598C91.3106 25.598 90.8976 25.5163 90.5149 25.353C90.1369 25.1897 89.8079 24.954 89.5279 24.646C89.2479 24.3333 89.0286 23.9507 88.8699 23.498C88.7113 23.0453 88.6319 22.5297 88.6319 21.951C88.6319 21.4237 88.7043 20.936 88.8489 20.488C88.9983 20.04 89.2129 19.655 89.4929 19.333C89.7776 19.0063 90.1253 18.752 90.5359 18.57C90.9513 18.388 91.4273 18.297 91.9639 18.297C92.4633 18.297 92.9019 18.3787 93.2799 18.542C93.6626 18.7007 94.0009 18.927 94.2949 19.221L93.9659 19.669ZM100.339 21.181C100.339 20.8917 100.297 20.628 100.213 20.39C100.134 20.1473 100.015 19.9397 99.8564 19.767C99.7024 19.5897 99.5134 19.4543 99.2894 19.361C99.0654 19.263 98.8111 19.214 98.5264 19.214C97.9291 19.214 97.4554 19.389 97.1054 19.739C96.7601 20.0843 96.5454 20.565 96.4614 21.181H100.339ZM101.347 24.506C101.193 24.6927 101.009 24.856 100.794 24.996C100.58 25.1313 100.349 25.2433 100.101 25.332C99.8588 25.4207 99.6068 25.486 99.3454 25.528C99.0841 25.5747 98.8251 25.598 98.5684 25.598C98.0784 25.598 97.6258 25.5163 97.2104 25.353C96.7998 25.185 96.4428 24.9423 96.1394 24.625C95.8408 24.303 95.6074 23.9063 95.4394 23.435C95.2714 22.9637 95.1874 22.4223 95.1874 21.811C95.1874 21.3163 95.2621 20.8543 95.4114 20.425C95.5654 19.9957 95.7848 19.6247 96.0694 19.312C96.3541 18.9947 96.7018 18.7473 97.1124 18.57C97.5231 18.388 97.9851 18.297 98.4984 18.297C98.9231 18.297 99.3151 18.3693 99.6744 18.514C100.038 18.654 100.351 18.8593 100.612 19.13C100.878 19.396 101.086 19.7273 101.235 20.124C101.385 20.516 101.459 20.964 101.459 21.468C101.459 21.664 101.438 21.7947 101.396 21.86C101.354 21.9253 101.275 21.958 101.158 21.958H96.4194C96.4334 22.406 96.4941 22.7957 96.6014 23.127C96.7134 23.4583 96.8674 23.736 97.0634 23.96C97.2594 24.1793 97.4928 24.345 97.7634 24.457C98.0341 24.5643 98.3374 24.618 98.6734 24.618C98.9861 24.618 99.2544 24.583 99.4784 24.513C99.7071 24.4383 99.9031 24.359 100.066 24.275C100.23 24.191 100.365 24.114 100.472 24.044C100.584 23.9693 100.68 23.932 100.759 23.932C100.862 23.932 100.941 23.9717 100.997 24.051L101.347 24.506ZM104.243 23.792C104.472 24.1 104.721 24.317 104.992 24.443C105.267 24.569 105.568 24.632 105.895 24.632C106.562 24.632 107.073 24.3963 107.428 23.925C107.783 23.4537 107.96 22.7513 107.96 21.818C107.96 20.95 107.801 20.313 107.484 19.907C107.171 19.4963 106.723 19.291 106.14 19.291C105.734 19.291 105.379 19.3843 105.076 19.571C104.777 19.7577 104.5 20.0213 104.243 20.362V23.792ZM104.243 19.431C104.542 19.0857 104.878 18.8103 105.251 18.605C105.629 18.3997 106.063 18.297 106.553 18.297C106.968 18.297 107.342 18.3763 107.673 18.535C108.009 18.6937 108.294 18.9247 108.527 19.228C108.76 19.5267 108.938 19.8907 109.059 20.32C109.185 20.7493 109.248 21.2323 109.248 21.769C109.248 22.343 109.178 22.8657 109.038 23.337C108.898 23.8083 108.695 24.212 108.429 24.548C108.168 24.8793 107.848 25.1383 107.47 25.325C107.092 25.507 106.667 25.598 106.196 25.598C105.729 25.598 105.335 25.5117 105.013 25.339C104.696 25.1617 104.418 24.912 104.18 24.59L104.117 25.234C104.08 25.4113 103.972 25.5 103.795 25.5H102.99V15.189H104.243V19.431ZM113.813 18.297C114.331 18.297 114.798 18.3833 115.213 18.556C115.628 18.7287 115.983 18.9737 116.277 19.291C116.571 19.6083 116.795 19.9933 116.949 20.446C117.108 20.894 117.187 21.3957 117.187 21.951C117.187 22.511 117.108 23.015 116.949 23.463C116.795 23.911 116.571 24.2937 116.277 24.611C115.983 24.9283 115.628 25.1733 115.213 25.346C114.798 25.514 114.331 25.598 113.813 25.598C113.29 25.598 112.819 25.514 112.399 25.346C111.984 25.1733 111.629 24.9283 111.335 24.611C111.041 24.2937 110.815 23.911 110.656 23.463C110.502 23.015 110.425 22.511 110.425 21.951C110.425 21.3957 110.502 20.894 110.656 20.446C110.815 19.9933 111.041 19.6083 111.335 19.291C111.629 18.9737 111.984 18.7287 112.399 18.556C112.819 18.3833 113.29 18.297 113.813 18.297ZM113.813 24.625C114.513 24.625 115.036 24.3917 115.381 23.925C115.726 23.4537 115.899 22.798 115.899 21.958C115.899 21.1133 115.726 20.4553 115.381 19.984C115.036 19.5127 114.513 19.277 113.813 19.277C113.458 19.277 113.148 19.3377 112.882 19.459C112.621 19.5803 112.401 19.7553 112.224 19.984C112.051 20.2127 111.921 20.495 111.832 20.831C111.748 21.1623 111.706 21.538 111.706 21.958C111.706 22.798 111.879 23.4537 112.224 23.925C112.574 24.3917 113.104 24.625 113.813 24.625ZM121.756 18.297C122.274 18.297 122.741 18.3833 123.156 18.556C123.572 18.7287 123.926 18.9737 124.22 19.291C124.514 19.6083 124.738 19.9933 124.892 20.446C125.051 20.894 125.13 21.3957 125.13 21.951C125.13 22.511 125.051 23.015 124.892 23.463C124.738 23.911 124.514 24.2937 124.22 24.611C123.926 24.9283 123.572 25.1733 123.156 25.346C122.741 25.514 122.274 25.598 121.756 25.598C121.234 25.598 120.762 25.514 120.342 25.346C119.927 25.1733 119.572 24.9283 119.278 24.611C118.984 24.2937 118.758 23.911 118.599 23.463C118.445 23.015 118.368 22.511 118.368 21.951C118.368 21.3957 118.445 20.894 118.599 20.446C118.758 19.9933 118.984 19.6083 119.278 19.291C119.572 18.9737 119.927 18.7287 120.342 18.556C120.762 18.3833 121.234 18.297 121.756 18.297ZM121.756 24.625C122.456 24.625 122.979 24.3917 123.324 23.925C123.67 23.4537 123.842 22.798 123.842 21.958C123.842 21.1133 123.67 20.4553 123.324 19.984C122.979 19.5127 122.456 19.277 121.756 19.277C121.402 19.277 121.091 19.3377 120.825 19.459C120.564 19.5803 120.345 19.7553 120.167 19.984C119.995 20.2127 119.864 20.495 119.775 20.831C119.691 21.1623 119.649 21.538 119.649 21.958C119.649 22.798 119.822 23.4537 120.167 23.925C120.517 24.3917 121.047 24.625 121.756 24.625ZM127.964 15.189V21.258H128.286C128.379 21.258 128.456 21.2463 128.517 21.223C128.582 21.195 128.65 21.1413 128.72 21.062L130.96 18.661C131.025 18.5817 131.093 18.521 131.163 18.479C131.237 18.4323 131.335 18.409 131.457 18.409H132.584L129.973 21.188C129.847 21.3467 129.711 21.4703 129.567 21.559C129.651 21.615 129.725 21.6803 129.791 21.755C129.861 21.825 129.926 21.9067 129.987 22L132.759 25.5H131.646C131.538 25.5 131.445 25.4837 131.366 25.451C131.291 25.4137 131.226 25.3483 131.17 25.255L128.839 22.35C128.769 22.252 128.699 22.189 128.629 22.161C128.563 22.1283 128.461 22.112 128.321 22.112H127.964V25.5H126.711V15.189H127.964Z" fill="#3949AB"/>
<defs>
<clipPath id="clip0_1_1474">
<rect width="24" height="24" fill="white" transform="translate(42 8)"/>
</clipPath>
</defs>
</svg>
