<svg width="175" height="40" viewBox="0 0 175 40" fill="none" xmlns="http://www.w3.org/2000/svg">
<rect x="0.5" y="0.5" width="174" height="39" rx="19.5" stroke="#3949AB"/>
<path d="M56.4892 21.8777L55.8626 24.2167L53.5726 24.2651C52.8882 22.9957 52.5 21.5434 52.5 20C52.5 18.5076 52.863 17.1002 53.5063 15.861H53.5068L55.5456 16.2348L56.4387 18.2614C56.2518 18.8063 56.1499 19.3913 56.1499 20C56.15 20.6607 56.2696 21.2937 56.4892 21.8777Z" fill="#FBBB00"/>
<path d="M70.3428 18.3187C70.4461 18.8631 70.5 19.4253 70.5 20C70.5 20.6443 70.4323 21.2728 70.3032 21.8791C69.8651 23.9422 68.7203 25.7437 67.1344 27.0185L67.1339 27.018L64.566 26.887L64.2025 24.6182C65.2548 24.001 66.0772 23.0353 66.5104 21.8791H61.6979V18.3187H66.5806H70.3428Z" fill="#518EF8"/>
<path d="M67.1339 27.0181L67.1344 27.0185C65.5921 28.2583 63.6328 29 61.5 29C58.0726 29 55.0927 27.0843 53.5726 24.2651L56.4892 21.8777C57.2492 23.9061 59.206 25.3501 61.5 25.3501C62.486 25.3501 63.4098 25.0835 64.2025 24.6182L67.1339 27.0181Z" fill="#28B446"/>
<path d="M67.2446 13.072L64.329 15.4589C63.5086 14.9461 62.5389 14.6499 61.4999 14.6499C59.154 14.6499 57.1606 16.1601 56.4387 18.2613L53.5067 15.861H53.5062C55.0041 12.9731 58.0216 11 61.4999 11C63.6837 11 65.6859 11.7779 67.2446 13.072Z" fill="#F14336"/>
<path d="M90.9446 20.677V24.527C90.4406 24.891 89.9016 25.164 89.3276 25.346C88.7583 25.5233 88.133 25.612 87.4516 25.612C86.6443 25.612 85.9163 25.4883 85.2676 25.241C84.619 24.989 84.0636 24.639 83.6016 24.191C83.1443 23.7383 82.792 23.197 82.5446 22.567C82.2973 21.937 82.1736 21.244 82.1736 20.488C82.1736 19.7227 82.2926 19.025 82.5306 18.395C82.7733 17.765 83.1163 17.226 83.5596 16.778C84.003 16.3253 84.542 15.9753 85.1766 15.728C85.8113 15.4807 86.5206 15.357 87.3046 15.357C87.7013 15.357 88.07 15.3873 88.4106 15.448C88.7513 15.504 89.0663 15.588 89.3556 15.7C89.645 15.8073 89.9133 15.9403 90.1606 16.099C90.408 16.253 90.639 16.428 90.8536 16.624L90.4686 17.24C90.408 17.3333 90.3286 17.394 90.2306 17.422C90.1373 17.4453 90.0323 17.422 89.9156 17.352C89.8036 17.2867 89.6753 17.2073 89.5306 17.114C89.386 17.0207 89.2086 16.932 88.9986 16.848C88.7933 16.7593 88.5483 16.6847 88.2636 16.624C87.9836 16.5633 87.65 16.533 87.2626 16.533C86.698 16.533 86.187 16.6263 85.7296 16.813C85.2723 16.995 84.8826 17.2587 84.5606 17.604C84.2386 17.9447 83.9913 18.36 83.8186 18.85C83.646 19.3353 83.5596 19.8813 83.5596 20.488C83.5596 21.118 83.6483 21.6827 83.8256 22.182C84.0076 22.6767 84.2643 23.099 84.5956 23.449C84.9316 23.7943 85.3376 24.058 85.8136 24.24C86.2896 24.422 86.824 24.513 87.4166 24.513C87.8833 24.513 88.2963 24.4617 88.6556 24.359C89.0196 24.2517 89.3743 24.1047 89.7196 23.918V21.713H88.1586C88.07 21.713 87.9976 21.6873 87.9416 21.636C87.8903 21.5847 87.8646 21.5217 87.8646 21.447V20.677H90.9446ZM95.6362 18.297C96.1542 18.297 96.6208 18.3833 97.0362 18.556C97.4515 18.7287 97.8062 18.9737 98.1002 19.291C98.3942 19.6083 98.6182 19.9933 98.7722 20.446C98.9308 20.894 99.0102 21.3957 99.0102 21.951C99.0102 22.511 98.9308 23.015 98.7722 23.463C98.6182 23.911 98.3942 24.2937 98.1002 24.611C97.8062 24.9283 97.4515 25.1733 97.0362 25.346C96.6208 25.514 96.1542 25.598 95.6362 25.598C95.1135 25.598 94.6422 25.514 94.2222 25.346C93.8068 25.1733 93.4522 24.9283 93.1582 24.611C92.8642 24.2937 92.6378 23.911 92.4792 23.463C92.3252 23.015 92.2482 22.511 92.2482 21.951C92.2482 21.3957 92.3252 20.894 92.4792 20.446C92.6378 19.9933 92.8642 19.6083 93.1582 19.291C93.4522 18.9737 93.8068 18.7287 94.2222 18.556C94.6422 18.3833 95.1135 18.297 95.6362 18.297ZM95.6362 24.625C96.3362 24.625 96.8588 24.3917 97.2042 23.925C97.5495 23.4537 97.7222 22.798 97.7222 21.958C97.7222 21.1133 97.5495 20.4553 97.2042 19.984C96.8588 19.5127 96.3362 19.277 95.6362 19.277C95.2815 19.277 94.9712 19.3377 94.7052 19.459C94.4438 19.5803 94.2245 19.7553 94.0472 19.984C93.8745 20.2127 93.7438 20.495 93.6552 20.831C93.5712 21.1623 93.5292 21.538 93.5292 21.958C93.5292 22.798 93.7018 23.4537 94.0472 23.925C94.3972 24.3917 94.9268 24.625 95.6362 24.625ZM103.58 18.297C104.098 18.297 104.564 18.3833 104.98 18.556C105.395 18.7287 105.75 18.9737 106.044 19.291C106.338 19.6083 106.562 19.9933 106.716 20.446C106.874 20.894 106.954 21.3957 106.954 21.951C106.954 22.511 106.874 23.015 106.716 23.463C106.562 23.911 106.338 24.2937 106.044 24.611C105.75 24.9283 105.395 25.1733 104.98 25.346C104.564 25.514 104.098 25.598 103.58 25.598C103.057 25.598 102.586 25.514 102.166 25.346C101.75 25.1733 101.396 24.9283 101.102 24.611C100.808 24.2937 100.581 23.911 100.423 23.463C100.269 23.015 100.192 22.511 100.192 21.951C100.192 21.3957 100.269 20.894 100.423 20.446C100.581 19.9933 100.808 19.6083 101.102 19.291C101.396 18.9737 101.75 18.7287 102.166 18.556C102.586 18.3833 103.057 18.297 103.58 18.297ZM103.58 24.625C104.28 24.625 104.802 24.3917 105.148 23.925C105.493 23.4537 105.666 22.798 105.666 21.958C105.666 21.1133 105.493 20.4553 105.148 19.984C104.802 19.5127 104.28 19.277 103.58 19.277C103.225 19.277 102.915 19.3377 102.649 19.459C102.387 19.5803 102.168 19.7553 101.991 19.984C101.818 20.2127 101.687 20.495 101.599 20.831C101.515 21.1623 101.473 21.538 101.473 21.958C101.473 22.798 101.645 23.4537 101.991 23.925C102.341 24.3917 102.87 24.625 103.58 24.625ZM110.964 22.035C111.216 22.035 111.438 22 111.629 21.93C111.82 21.86 111.981 21.762 112.112 21.636C112.243 21.51 112.341 21.3607 112.406 21.188C112.471 21.0107 112.504 20.817 112.504 20.607C112.504 20.173 112.371 19.8277 112.105 19.571C111.844 19.3143 111.463 19.186 110.964 19.186C110.46 19.186 110.075 19.3143 109.809 19.571C109.548 19.8277 109.417 20.173 109.417 20.607C109.417 20.817 109.45 21.0107 109.515 21.188C109.585 21.3607 109.685 21.51 109.816 21.636C109.947 21.762 110.108 21.86 110.299 21.93C110.49 22 110.712 22.035 110.964 22.035ZM113.211 25.885C113.211 25.7123 113.162 25.5723 113.064 25.465C112.966 25.3577 112.833 25.2737 112.665 25.213C112.502 25.1523 112.31 25.1103 112.091 25.087C111.872 25.059 111.638 25.038 111.391 25.024C111.148 25.01 110.901 24.996 110.649 24.982C110.397 24.968 110.154 24.9447 109.921 24.912C109.66 25.0333 109.445 25.1873 109.277 25.374C109.114 25.556 109.032 25.7707 109.032 26.018C109.032 26.1767 109.072 26.3237 109.151 26.459C109.235 26.599 109.361 26.718 109.529 26.816C109.697 26.9187 109.907 26.998 110.159 27.054C110.416 27.1147 110.717 27.145 111.062 27.145C111.398 27.145 111.699 27.1147 111.965 27.054C112.231 26.9933 112.455 26.907 112.637 26.795C112.824 26.683 112.966 26.55 113.064 26.396C113.162 26.242 113.211 26.0717 113.211 25.885ZM114.478 18.689V19.151C114.478 19.305 114.38 19.403 114.184 19.445L113.379 19.55C113.538 19.858 113.617 20.1987 113.617 20.572C113.617 20.9173 113.549 21.2323 113.414 21.517C113.283 21.797 113.101 22.0373 112.868 22.238C112.635 22.4387 112.355 22.5927 112.028 22.7C111.701 22.8073 111.347 22.861 110.964 22.861C110.633 22.861 110.32 22.8213 110.026 22.742C109.877 22.8353 109.762 22.9357 109.683 23.043C109.604 23.1457 109.564 23.2507 109.564 23.358C109.564 23.526 109.632 23.6543 109.767 23.743C109.907 23.827 110.089 23.8877 110.313 23.925C110.537 23.9623 110.791 23.9857 111.076 23.995C111.365 24.0043 111.659 24.0207 111.958 24.044C112.261 24.0627 112.555 24.0977 112.84 24.149C113.129 24.2003 113.386 24.2843 113.61 24.401C113.834 24.5177 114.014 24.6787 114.149 24.884C114.289 25.0893 114.359 25.3553 114.359 25.682C114.359 25.9853 114.282 26.2793 114.128 26.564C113.979 26.8487 113.762 27.1007 113.477 27.32C113.192 27.544 112.842 27.7213 112.427 27.852C112.016 27.9873 111.552 28.055 111.034 28.055C110.516 28.055 110.063 28.0037 109.676 27.901C109.289 27.7983 108.967 27.6607 108.71 27.488C108.453 27.3153 108.26 27.1147 108.129 26.886C108.003 26.662 107.94 26.4263 107.94 26.179C107.94 25.829 108.05 25.5327 108.269 25.29C108.488 25.0473 108.789 24.8537 109.172 24.709C108.962 24.6157 108.794 24.492 108.668 24.338C108.547 24.1793 108.486 23.967 108.486 23.701C108.486 23.5983 108.505 23.4933 108.542 23.386C108.579 23.274 108.635 23.1643 108.71 23.057C108.789 22.945 108.885 22.84 108.997 22.742C109.109 22.644 109.24 22.5577 109.389 22.483C109.039 22.287 108.766 22.028 108.57 21.706C108.374 21.3793 108.276 21.0013 108.276 20.572C108.276 20.2267 108.341 19.914 108.472 19.634C108.607 19.3493 108.794 19.109 109.032 18.913C109.27 18.7123 109.552 18.5583 109.879 18.451C110.21 18.3437 110.572 18.29 110.964 18.29C111.272 18.29 111.559 18.325 111.825 18.395C112.091 18.4603 112.334 18.5583 112.553 18.689H114.478ZM117.054 15.189V25.5H115.808V15.189H117.054ZM123.821 21.181C123.821 20.8917 123.779 20.628 123.695 20.39C123.616 20.1473 123.497 19.9397 123.338 19.767C123.184 19.5897 122.995 19.4543 122.771 19.361C122.547 19.263 122.293 19.214 122.008 19.214C121.411 19.214 120.937 19.389 120.587 19.739C120.242 20.0843 120.027 20.565 119.943 21.181H123.821ZM124.829 24.506C124.675 24.6927 124.491 24.856 124.276 24.996C124.061 25.1313 123.83 25.2433 123.583 25.332C123.34 25.4207 123.088 25.486 122.827 25.528C122.566 25.5747 122.307 25.598 122.05 25.598C121.56 25.598 121.107 25.5163 120.692 25.353C120.281 25.185 119.924 24.9423 119.621 24.625C119.322 24.303 119.089 23.9063 118.921 23.435C118.753 22.9637 118.669 22.4223 118.669 21.811C118.669 21.3163 118.744 20.8543 118.893 20.425C119.047 19.9957 119.266 19.6247 119.551 19.312C119.836 18.9947 120.183 18.7473 120.594 18.57C121.005 18.388 121.467 18.297 121.98 18.297C122.405 18.297 122.797 18.3693 123.156 18.514C123.52 18.654 123.833 18.8593 124.094 19.13C124.36 19.396 124.568 19.7273 124.717 20.124C124.866 20.516 124.941 20.964 124.941 21.468C124.941 21.664 124.92 21.7947 124.878 21.86C124.836 21.9253 124.757 21.958 124.64 21.958H119.901C119.915 22.406 119.976 22.7957 120.083 23.127C120.195 23.4583 120.349 23.736 120.545 23.96C120.741 24.1793 120.974 24.345 121.245 24.457C121.516 24.5643 121.819 24.618 122.155 24.618C122.468 24.618 122.736 24.583 122.96 24.513C123.189 24.4383 123.385 24.359 123.548 24.275C123.711 24.191 123.847 24.114 123.954 24.044C124.066 23.9693 124.162 23.932 124.241 23.932C124.344 23.932 124.423 23.9717 124.479 24.051L124.829 24.506Z" fill="#3949AB"/>
</svg>
