<svg width="50" height="49" viewBox="0 0 50 49" fill="none" xmlns="http://www.w3.org/2000/svg">
<g clip-path="url(#clip0_1_1579)">
<path d="M45.232 10.8415C45.2171 10.0271 44.9338 8.29873 44.6198 7.56726C44.3057 6.83579 43.8796 6.20614 43.3412 5.67827C42.7879 5.15041 42.1562 4.73944 41.4459 4.44534C40.7355 4.15125 39.9841 4.0042 39.1916 4.0042C34.1926 4.0042 30.4433 4.0042 27.9438 4.0042C25.4431 4.0042 21.6921 4.0042 16.6908 4.0042V0H39.3037C40.6346 0 41.8945 0.248846 43.0833 0.746546C44.2721 1.24425 45.3151 1.94554 46.2123 2.85045C47.1096 3.74027 47.8086 4.78467 48.3096 5.98368C48.8106 7.18268 49.2306 9.66137 49.2306 11.0037V12.9787H45.232C45.232 12.5342 45.2358 10.9224 45.232 10.8415Z" fill="#3949AB"/>
<path d="M38.3109 45.0201C39.1292 45.0052 40.8657 44.7232 41.6006 44.4107C42.3355 44.0981 42.9681 43.6739 43.4985 43.1381C44.0288 42.5874 44.4417 41.9586 44.7372 41.2516C45.0327 40.5446 45.1804 39.7967 45.1804 39.0079V16.6126H49.2035V39.1195C49.2035 40.4442 48.9535 41.6981 48.4534 42.8814C47.9534 44.0646 47.2488 45.1027 46.3396 45.9958C45.4456 46.8888 44.3963 47.5846 43.1916 48.0832C41.987 48.5818 39.4966 48.9999 38.148 48.9999H36.1637V45.0201C36.6103 45.0201 38.2296 45.0238 38.3109 45.0201Z" fill="#3949AB"/>
<path d="M3.99859 38.1313C4.01355 38.9457 4.29684 40.674 4.61087 41.4055C4.92489 42.137 5.35107 42.7666 5.88941 43.2945C6.4427 43.8224 7.07448 44.2333 7.78479 44.5274C8.49509 44.8215 9.2465 44.9686 10.0391 44.9686H32.5398V48.9728H9.9269C8.59602 48.9728 7.33618 48.7239 6.14736 48.2262C4.95853 47.7285 3.91552 47.0272 3.0183 46.1223C2.12107 45.2325 1.42199 44.1881 0.921042 42.9891C0.420091 41.7901 0 39.3114 0 37.9691V35.9941H3.99859C3.99859 36.4386 3.99486 38.0504 3.99859 38.1313Z" fill="#3949AB"/>
<path d="M13.0398 4.02538H10.8926C10.0743 4.04026 8.33781 4.32222 7.6029 4.63478C6.86799 4.94734 6.23536 5.37152 5.70502 5.90733C5.17467 6.45802 4.76176 7.08685 4.46628 7.79382C4.1708 8.5008 4.02306 9.24869 4.02306 10.0375C4.02306 13.0227 4.02306 15.2616 4.02306 16.7542C4.02306 20.2383 4.02306 25.4645 4.02306 32.4328C3.59794 32.4328 0.149844 32.4328 0 32.4328L0 9.9259C0 8.60125 0.250018 7.34732 0.750062 6.16407C1.25011 4.98082 1.9547 3.9427 2.86387 3.04968C3.75789 2.15666 4.80721 1.46086 6.01186 0.962255C7.21651 0.463653 9.70688 0.0455303 11.0555 0.0455303C11.1973 0.0455303 13.0398 0.0455303 13.0398 0.0455303C13.0398 1.14483 13.0398 3.17867 13.0398 4.02538Z" fill="#3949AB"/>
<path d="M16.7157 20.2053C16.7157 19.3181 16.886 18.4857 17.2265 17.7081C17.5671 16.9305 18.0278 16.2526 18.6087 15.6744C19.1997 15.0862 19.8858 14.6226 20.667 14.2837C21.4483 13.9447 22.2846 13.7753 23.176 13.7753H33.0619V18.067H23.176C22.8756 18.067 22.5951 18.1218 22.3347 18.2314C22.0743 18.3411 21.8439 18.4956 21.6436 18.695C21.4533 18.8844 21.303 19.1087 21.1929 19.3679C21.0827 19.6271 21.0276 19.9062 21.0276 20.2053C21.0276 20.5044 21.0827 20.7885 21.1929 21.0577C21.303 21.3169 21.4533 21.5462 21.6436 21.7455C21.8439 21.935 22.0743 22.0845 22.3347 22.1942C22.5951 22.3038 22.8756 22.3586 23.176 22.3586H27.4879C28.3794 22.3586 29.2157 22.5281 29.9969 22.8671C30.7882 23.196 31.4743 23.6546 32.0552 24.2428C32.6462 24.821 33.1069 25.5039 33.4375 26.2914C33.778 27.069 33.9483 27.9014 33.9483 28.7887C33.9483 29.6759 33.778 30.5084 33.4375 31.2859C33.1069 32.0635 32.6462 32.7464 32.0552 33.3346C31.4743 33.9128 30.7882 34.3714 29.9969 34.7103C29.2157 35.0493 28.3794 35.2188 27.4879 35.2188H17.9176V30.9271H27.4879C27.7884 30.9271 28.0689 30.8722 28.3293 30.7626C28.5897 30.6529 28.8151 30.5034 29.0054 30.314C29.2057 30.1146 29.3609 29.8853 29.4711 29.6261C29.5813 29.3669 29.6364 29.0878 29.6364 28.7887C29.6364 28.4896 29.5813 28.2105 29.4711 27.9513C29.3609 27.6921 29.2057 27.4678 29.0054 27.2784C28.8151 27.079 28.5897 26.9245 28.3293 26.8148C28.0689 26.7052 27.7884 26.6503 27.4879 26.6503H23.176C22.2846 26.6503 21.4483 26.4809 20.667 26.1419C19.8858 25.803 19.1997 25.3444 18.6087 24.7662C18.0278 24.178 17.5671 23.4951 17.2265 22.7175C16.886 21.93 16.7157 21.0926 16.7157 20.2053Z" fill="#3949AB"/>
</g>
<defs>
<clipPath id="clip0_1_1579">
<rect width="49.2308" height="49" fill="white"/>
</clipPath>
</defs>
</svg>
